# xmcd
#
# Track frame offsets:
# 182
# 17587
# 35047
# 47697
# 71267
# 90545
# 106242
# 124755
# 137300
# 154385
# 166392
# 180202
#
# Disc length: 2643 seconds
#
#
# Revision: 3
# Processed by: cddbd v1.5.1PL0 Copyright (c) Steve Scherf et al.
# Submitted via: FreeRIP 2.941 
#
DISCID=8e0a510c
DTITLE=Bryan White - How Lucky I Am
DYEAR=1999
DGENRE=Country
TTITLE0=Everywhere I Turn
TTITLE1=Heaven Sent
TTITLE2=The Stayin'
TTITLE3=You're Still Beautiful To Me
TTITLE4=That Good
TTITLE5=Love Me Like You Mean It
TTITLE6=God Gave Me You
TTITLE7=Love Happens Just Like That
TTITLE8=Shari Ann
TTITLE9=Two In A Million
TTITLE10=How Lucky I Am
TTITLE11=You'll Always Be Loved (By Me)
EXTD=YEAR: 1999
EXTT0=
EXTT1=
EXTT2=
EXTT3=
EXTT4=
EXTT5=
EXTT6=
EXTT7=
EXTT8=
EXTT9=
EXTT10=
EXTT11=
PLAYORDER=
